<svg id="Layer_3" enable-background="new 0 0 64 64" height="512" viewBox="0 0 64 64" width="512" xmlns="http://www.w3.org/2000/svg"><g><circle cx="32" cy="32" fill="#f4b2b0" r="17"/><g fill="#b3404a"><path d="m32 14c-9.925 0-18 8.075-18 18s8.075 18 18 18 18-8.075 18-18c0-1.764-.266-3.466-.741-5.078 5.474-.627 9.741-5.283 9.741-10.922 0-6.065-4.935-11-11-11-5.639 0-10.295 4.267-10.922 9.741-1.613-.475-3.314-.741-5.078-.741zm0 33.999c-8.823 0-16-7.177-16-16s7.177-16 16-16c8.822 0 16 7.177 16 16-.001 8.823-7.178 16-16 16zm16-40.999c4.962 0 9 4.037 9 9 0 4.771-3.734 8.675-8.431 8.971-1.823-4.281-5.258-7.717-9.54-9.54.295-4.698 4.2-8.431 8.971-8.431z"/><path d="m32 18v2c6.617 0 12 5.383 12 12h2c0-7.72-6.281-14-14-14z"/><path d="m45 54c0 4.962 4.037 9 9 9 4.962 0 9-4.037 9-9s-4.037-9-9-9-9 4.037-9 9zm16 0c0 3.859-3.14 7-7 7s-7-3.14-7-7 3.14-7 7-7c3.859 0 7 3.14 7 7z"/><path d="m54 51c1.654 0 3 1.346 3 3h2c0-2.757-2.243-5-5-5z"/><path d="m17 9.999h2c0-2.757-2.243-5-5-5v2c1.654.001 3 1.346 3 3z"/><path d="m14 18.999c4.962 0 9-4.037 9-9s-4.037-9-9-9-9 4.037-9 9 4.037 9 9 9zm0-15.999c3.859 0 7 3.14 7 7 0 3.859-3.14 7-7 7s-7-3.14-7-7 3.14-7 7-7z"/><path d="m52.999 15.999h2c0-3.859-3.14-7-7-7v2c2.757.001 5 2.243 5 5z"/><path d="m15 62.999c2.757 0 5-2.243 5-5s-2.243-5-5-5-5 2.243-5 5 2.242 5 5 5zm0-7.999c1.654 0 3 1.346 3 3s-1.346 3-3 3-3-1.346-3-3c0-1.655 1.345-3 3-3z"/><path d="m6 44.999c2.757 0 5-2.243 5-5s-2.243-5-5-5-5 2.243-5 5 2.243 5 5 5zm0-7.999c1.654 0 3 1.346 3 3s-1.346 3-3 3-3-1.346-3-3c0-1.655 1.346-3 3-3z"/><path d="m9 32.999c2.757 0 5-2.243 5-5s-2.243-5-5-5-5 2.243-5 5 2.243 5 5 5zm0-7.999c1.654 0 3 1.346 3 3s-1.346 3-3 3-3-1.346-3-3c0-1.655 1.345-3 3-3z"/><path d="m56 31c-2.206 0-4 1.794-4 4s1.794 4 4 4 4-1.794 4-4c-.001-2.207-1.795-4-4-4zm0 5.999c-1.103 0-2-.897-2-2s.897-2 2-2 2 .897 2 2c-.001 1.103-.898 2-2 2z"/><path d="m31 55c0 2.206 1.794 4 4 4s4-1.794 4-4-1.794-4-4-4-4 1.793-4 4zm6 0c0 1.103-.897 2-2 2s-2-.897-2-2 .897-2 2-2 2 .896 2 2z"/><path d="m32 10.999c1.654 0 3-1.346 3-3s-1.346-3-3-3-3 1.346-3 3 1.345 3 3 3zm0-3.999c.551 0 1 .448 1 1 0 .551-.448 1-1 1s-1-.448-1-1 .448-1 1-1z"/><path d="m14 51.999c1.654 0 3-1.346 3-3s-1.346-3-3-3-3 1.346-3 3 1.346 3 3 3zm0-3.999c.551 0 1 .448 1 1 0 .551-.448 1-1 1s-1-.448-1-1 .448-1 1-1z"/></g></g></svg>