<svg width="785" height="832" viewBox="0 0 785 832" fill="none" xmlns="http://www.w3.org/2000/svg">
<path d="M596.504 26.4648C596.504 26.4648 622.969 6.3516 679.075 33.875C735.18 61.3984 775.406 38.1094 775.406 38.1094L769.055 130.207C769.055 130.207 711.891 152.437 658.961 120.68C606.032 88.9218 589.094 120.68 589.094 120.68L596.504 26.4648Z" fill="#FF6584"/>
<path d="M647.317 446.726C647.304 508.696 628.741 569.244 594.017 620.572C559.294 671.9 510 711.658 452.483 734.727C441.988 738.946 431.265 742.575 420.365 745.598C365.939 760.651 308.448 760.659 254.018 745.619C246.576 743.555 239.251 741.223 232.042 738.622C215.646 732.725 199.784 725.44 184.627 716.847C90.5078 663.61 26.9817 562.589 26.9817 446.726C26.9358 366.946 57.6505 290.22 112.736 232.511C167.821 174.801 243.036 140.551 322.731 136.887C327.516 136.664 332.322 136.555 337.149 136.558C342.453 136.558 347.728 136.689 352.975 136.95C432.399 140.998 507.233 175.402 562.012 233.054C616.792 290.706 647.33 367.199 647.317 446.726V446.726Z" fill="#FF6584"/>
<path d="M727.254 137.859C706.88 137.86 682.592 133.774 659.211 119.746C637.816 106.909 620.083 102.669 606.502 107.14C602.971 108.249 599.697 110.055 596.875 112.45C594.053 114.845 591.74 117.782 590.071 121.086L587.32 127.701L598.329 18.7725L598.614 18.5021C599.55 17.6131 622.202 -2.92917 681.477 26.1506C739.532 54.6302 781.868 30.9029 782.286 30.6594L784.009 29.6649L783.873 31.6487L777.114 129.65L776.488 129.893C776.134 130.031 755.446 137.858 727.254 137.859ZM617.77 103.303C629.829 103.303 644.074 108.195 660.3 117.93C712.145 149.037 768.549 130.479 775.095 128.149L781.632 33.371C773.038 37.5144 733.047 53.8068 680.545 28.0517C626.066 1.32484 603.098 17.5754 600.354 19.798L590.626 116.046C594.427 110.901 599.749 107.081 605.841 105.129C609.694 103.887 613.722 103.271 617.77 103.303V103.303Z" fill="#3F3D56"/>
<path d="M330.798 755.835C300.883 755.854 271.105 751.816 242.276 743.829C234.296 741.616 226.423 739.109 218.873 736.378C201.416 730.094 184.526 722.337 168.384 713.19C116.071 683.601 72.8179 640.306 43.2797 587.964C13.7415 535.622 -0.963169 476.216 0.748306 416.139C2.45978 356.062 20.5226 297.589 52.9927 247.014C85.4627 196.439 131.111 155.676 185.023 129.113C225.704 109.024 270.119 97.6188 315.446 95.6227C325.671 95.1461 336.501 95.1497 347.647 95.6899C422.842 99.5588 494.459 128.999 550.635 179.133C606.812 229.267 644.176 297.087 656.54 371.359C668.904 445.631 655.525 521.899 618.62 587.528C581.715 653.157 523.497 704.21 453.611 732.23C442.433 736.72 431.015 740.585 419.408 743.808C390.552 751.807 360.743 755.853 330.798 755.835ZM330.798 97.3905C325.629 97.3905 320.497 97.5073 315.543 97.7378C270.508 99.7206 226.378 111.052 185.958 131.013C128.173 159.479 80.0374 204.313 47.5453 259.935C15.0532 315.556 -0.359774 379.506 3.22539 443.823C6.81055 508.139 29.2355 569.98 67.708 621.646C106.18 673.311 159.001 712.519 219.592 734.386C227.092 737.101 234.914 739.591 242.842 741.789C300.431 757.701 361.258 757.694 418.843 741.767C430.374 738.566 441.718 734.726 452.822 730.265C522.276 702.438 580.137 651.716 616.818 586.504C653.499 521.292 666.799 445.504 654.514 371.699C642.228 297.894 605.095 230.501 549.266 180.689C493.438 130.876 422.266 101.632 347.543 97.8045C341.866 97.53 336.232 97.3905 330.798 97.3905V97.3905Z" fill="#3F3D56"/>
<path d="M248.457 253.671C303.184 253.671 347.549 209.306 347.549 154.579C347.549 99.8521 303.184 55.4871 248.457 55.4871C193.73 55.4871 149.365 99.8521 149.365 154.579C149.365 209.306 193.73 253.671 248.457 253.671Z" fill="#2F2E41"/>
<path d="M269.089 252.378C307.863 252.378 339.295 220.946 339.295 182.172C339.295 143.398 307.863 111.966 269.089 111.966C230.316 111.966 198.883 143.398 198.883 182.172C198.883 220.946 230.316 252.378 269.089 252.378Z" fill="#A0616A"/>
<path d="M213.184 197.773C213.184 197.773 202.784 280.98 165.08 297.882C127.377 314.783 269.089 305.682 269.089 305.682C269.089 305.682 269.089 230.276 274.29 227.676C279.49 225.075 213.184 197.773 213.184 197.773Z" fill="#A0616A"/>
<path d="M197.583 747.719L192.383 775.022C192.383 775.022 119.576 817.925 154.679 829.626C189.782 841.327 232.686 778.922 232.686 778.922L224.885 747.719H197.583Z" fill="#A0616A"/>
<path d="M248.287 542.302L305.492 603.407L462.805 494.198C462.805 494.198 426.402 465.596 414.701 465.596C403 465.596 248.287 542.302 248.287 542.302Z" fill="#A0616A"/>
<path d="M557.713 221.175C557.713 221.175 574.615 102.865 604.517 111.966C634.42 121.067 587.616 238.077 587.616 238.077L557.713 221.175Z" fill="#A0616A"/>
<path d="M347.096 283.58C347.096 283.58 290.365 274.48 269.326 283.58C248.288 292.681 184.735 299.922 176.858 289.801C168.981 279.68 98.7749 313.483 98.7749 327.784C98.7749 342.085 250.888 557.904 250.888 557.904C250.888 557.904 408.201 513.7 429.003 466.896C429.003 466.896 410.801 453.895 410.801 443.494C410.801 433.093 401.7 422.692 401.7 422.692C401.7 422.692 412.101 396.69 393.9 373.288C375.698 349.886 347.096 283.58 347.096 283.58Z" fill="#D0CDE1"/>
<path d="M330.194 287.481L347.096 283.58C347.096 283.58 388.699 293.981 417.302 329.084C445.904 364.187 495.308 375.888 495.308 375.888L555.113 213.375L604.518 230.276C604.518 230.276 565.514 436.993 521.31 439.594C477.107 442.194 367.898 394.09 367.898 394.09L330.194 287.481Z" fill="#D0CDE1"/>
<path d="M119.576 314.783C119.576 314.783 92.2742 316.083 92.2742 339.485C92.2742 362.887 96.1745 443.494 119.576 478.597C142.978 513.7 163.78 593.006 165.08 594.307C166.38 595.607 191.082 759.42 191.082 759.42L232.686 755.52L224.885 551.403L184.582 447.394L119.576 314.783Z" fill="#D0CDE1"/>
<path d="M578.784 641.2C545.39 682.68 501.9 714.885 452.483 734.727L445.909 720.414L420.365 745.598C365.939 760.651 308.448 760.659 254.018 745.619L243.083 738.622L301.591 671.01C301.591 671.01 302.893 637.209 301.591 632.011C300.289 626.814 283.225 579.622 283.225 579.622C342.516 575.864 427.299 500.651 446.936 482.517C449.635 480.019 451.107 478.6 451.107 478.6C560.311 494.193 575.915 621.605 575.915 621.605L578.784 641.2Z" fill="#2F2E41"/>
<path d="M198.474 197.957C201.981 197.957 204.825 192.032 204.825 184.724C204.825 177.416 201.981 171.492 198.474 171.492C194.966 171.492 192.122 177.416 192.122 184.724C192.122 192.032 194.966 197.957 198.474 197.957Z" fill="#A0616A"/>
<path d="M158.247 101.625C181.048 101.625 199.532 83.1409 199.532 60.3398C199.532 37.5386 181.048 19.0547 158.247 19.0547C135.446 19.0547 116.962 37.5386 116.962 60.3398C116.962 83.1409 135.446 101.625 158.247 101.625Z" fill="#2F2E41"/>
<path d="M114.845 41.2851C114.846 31.1616 118.568 21.3915 125.301 13.8318C132.034 6.27222 141.311 1.45012 151.366 0.282143C145.578 -0.398076 139.711 0.155017 134.152 1.90503C128.592 3.65504 123.467 6.56231 119.111 10.4356C114.756 14.3089 111.271 19.0604 108.884 24.3775C106.497 29.6946 105.263 35.4568 105.263 41.2851C105.263 47.1134 106.497 52.8757 108.884 58.1928C111.271 63.5099 114.756 68.2614 119.111 72.1347C123.467 76.008 128.592 78.9152 134.152 80.6653C139.711 82.4153 145.578 82.9684 151.366 82.2881C141.311 81.1202 132.034 76.2981 125.301 68.7384C118.568 61.1788 114.846 51.4087 114.845 41.2851V41.2851Z" fill="#2F2E41"/>
<path d="M600.739 24.3477H585.918V179.961H600.739V24.3477Z" fill="#2F2E41"/>
<path d="M184.712 121.738C184.712 121.738 203.767 161.965 227.056 163.023C250.345 164.082 337.149 147.144 337.149 147.144L308.567 87.8632L232.349 97.3905L184.712 121.738Z" fill="#2F2E41"/>
</svg>
