<?xml version="1.0" encoding="iso-8859-1"?>
<!-- Generator: Adobe Illustrator 19.0.0, SVG Export Plug-In . SVG Version: 6.00 Build 0)  -->
<svg version="1.1" id="Capa_1" xmlns="http://www.w3.org/2000/svg" xmlns:xlink="http://www.w3.org/1999/xlink" x="0px" y="0px"
	 viewBox="0 0 512 512" style="enable-background:new 0 0 512 512;" xml:space="preserve">
<path style="fill:#FE9923;" d="M457.999,177.8l-40.8-61.2c-3.6-5.4-10.499-8.101-16.8-6c-6.301,1.8-10.8,7.8-10.8,14.401
	c0,29.399-4.501,58.799-12.9,87.299c-7.2-20.7-21-39-39.901-51.301c-33.3-22.2-42.299-65.6-20.099-98.899l26.1-39
	c2.999-4.501,3.3-10.501,0.599-15.3c-2.399-4.801-7.5-7.8-13.2-7.8C303.801,0,278.9,5.099,255.8,14.399
	c-70.499,28.2-121.5,93.501-126.299,173c-4.801-12.9-7.5-26.7-7.5-40.8V87.8c0-6.599-4.501-12.599-10.801-14.399
	c-6.299-2.1-13.2,0.601-16.8,6l-20.099,30.3c-37.2,55.8-56.7,120.599-56.7,187.5C17.599,415.699,113.9,512,232.4,512h46.8
	c118.498,0,215.199-96.301,215.199-214.799C494.399,254.599,481.7,213.199,457.999,177.8z"/>
<path style="fill:#FEDB41;" d="M268.699,266.3c-2.699-5.099-7.8-7.5-12.9-7.5c-5.099,0-9.901,2.401-12.9,7.5
	c-62.1,107.701-76.5,121.5-76.5,156.301c0,49.2,40.199,89.399,89.399,89.399s89.399-40.199,89.399-89.399
	C345.198,384.5,319.699,354.8,268.699,266.3z"/>
<path style="fill:#FE8821;" d="M494.399,297.201C494.399,415.699,397.698,512,279.2,512h-23.401V14.399
	C278.9,5.099,303.8,0,330.198,0c5.7,0,10.801,2.999,13.2,7.8c2.701,4.799,2.401,10.8-0.599,15.3l-26.1,39
	c-22.2,33.3-13.2,76.7,20.099,98.899c18.9,12.301,32.701,30.601,39.901,51.301c8.399-28.5,12.9-57.9,12.9-87.299
	c0-6.601,4.499-12.601,10.8-14.401c6.301-2.1,13.2,0.601,16.8,6l40.8,61.2C481.7,213.199,494.399,254.599,494.399,297.201z"/>
<path style="fill:#FCBF29;" d="M345.198,422.601c0,49.2-40.199,89.399-89.399,89.399V258.8c5.099,0,10.201,2.401,12.9,7.5
	C319.699,354.8,345.198,384.5,345.198,422.601z"/>
<g>
</g>
<g>
</g>
<g>
</g>
<g>
</g>
<g>
</g>
<g>
</g>
<g>
</g>
<g>
</g>
<g>
</g>
<g>
</g>
<g>
</g>
<g>
</g>
<g>
</g>
<g>
</g>
<g>
</g>
</svg>
