<svg id="Capa_1" enable-background="new 0 0 510 510" height="512" viewBox="0 0 510 510" width="512" xmlns="http://www.w3.org/2000/svg" xmlns:xlink="http://www.w3.org/1999/xlink"><linearGradient id="lg1"><stop offset="0" stop-color="#c7e9ff"/><stop offset="1" stop-color="#7acbff"/></linearGradient><linearGradient id="SVGID_1_" gradientUnits="userSpaceOnUse" x1="106.174" x2="421.57" xlink:href="#lg1" y1="106.174" y2="421.57"/><linearGradient id="lg2"><stop offset="0" stop-color="#7acbff" stop-opacity="0"/><stop offset="1" stop-color="#2f73a0"/></linearGradient><linearGradient id="SVGID_2_" gradientUnits="userSpaceOnUse" x1="307.567" x2="23.742" xlink:href="#lg2" y1="134.211" y2="-149.614"/><linearGradient id="SVGID_3_" gradientUnits="userSpaceOnUse" x1="74.381" x2="156.222" xlink:href="#lg1" y1="57.151" y2="138.992"/><linearGradient id="SVGID_4_" gradientUnits="userSpaceOnUse" x1="255" x2="255" xlink:href="#lg2" y1="450.888" y2="514.198"/><linearGradient id="SVGID_5_" gradientUnits="userSpaceOnUse" x1="366.71" x2="-21.569" xlink:href="#lg2" y1="477.69" y2="89.411"/><linearGradient id="SVGID_6_" gradientUnits="userSpaceOnUse" x1="471.857" x2="236.39" xlink:href="#lg2" y1="427.011" y2="191.544"/><linearGradient id="SVGID_7_" gradientUnits="userSpaceOnUse" x1="132.609" x2="249.869" y1="243.674" y2="360.934"><stop offset="0" stop-color="#2f73a0"/><stop offset="1" stop-color="#174461"/></linearGradient><linearGradient id="SVGID_8_" gradientUnits="userSpaceOnUse" x1="316.416" x2="397.668" y1="271.584" y2="352.836"><stop offset="0" stop-color="#fff"/><stop offset="1" stop-color="#c7e9ff"/></linearGradient><g><g><path d="m452.826 0h-286.474c-12.495 0-24.478 4.964-33.314 13.799l-102.766 102.766c-8.835 8.835-13.799 20.819-13.799 33.314v319.419c0 22.386 18.316 40.701 40.701 40.701h395.664c22.379 0 40.689-18.31 40.689-40.689v-428.609c0-22.385-18.316-40.701-40.701-40.701z" fill="url(#SVGID_1_)"/><path d="m452.826 0h-286.474c-12.495 0-24.479 4.964-33.314 13.799l-102.766 102.767c-6.555 6.555-10.973 14.845-12.82 23.789l369.645 369.645h65.741c22.379 0 40.689-18.31 40.689-40.689v-428.61c0-22.385-18.316-40.701-40.701-40.701z" fill="url(#SVGID_2_)"/><path d="m17.869 138.449c-.151.654-.29 1.291-.417 1.905h124.668c8.828 0 15.984-7.156 15.984-15.984v-123.628c-.974.173-1.998.377-3.054.61-9.294 2.055-17.767 6.834-24.497 13.564l-99.143 99.143c-6.703 6.703-11.411 15.154-13.541 24.39z" fill="url(#SVGID_3_)"/><path d="m16.473 429.824v39.475c0 22.386 18.316 40.701 40.701 40.701h395.664c22.379 0 40.689-18.31 40.689-40.689v-39.488h-477.054z" fill="url(#SVGID_4_)"/></g><path d="m493.527 469.311v-33.56l-282.049-282.048c-5.293-8.972-18.365-11.347-31.701-11.347-15.033 0-27.738 3.554-31.334 14.993l-60.789 199.36c-.326 1.307-.653 2.615-.653 3.595 0 5.4 1.718 10.145 7.082 13.746l135.95 135.95h222.805c22.379 0 40.689-18.31 40.689-40.689z" fill="url(#SVGID_5_)"/><path d="m493.527 469.311v-140.194l-82.207-82.206c-11.65-14.022-31.258-21.486-60.836-21.486-24.185 0-53.886 8.784-53.886 24.144 0 9.575 1.896 20.231 9.336 23.867l21.906 22.201c-25.078 5.512-39.737 17.88-39.737 45.114 0 16.747 4.114 28.416 13.483 35.416l133.832 133.833h17.42c22.379 0 40.689-18.31 40.689-40.689z" fill="url(#SVGID_6_)"/><g><path d="m85 360.304c0-.98.327-2.288.653-3.595l60.789-199.36c3.596-11.439 18.303-16.994 33.335-16.994 15.034 0 29.741 5.556 33.335 16.994l61.116 199.36c.327 1.307.653 2.615.653 3.595 0 12.092-18.628 20.916-32.681 20.916-8.172 0-14.707-2.615-16.668-9.478l-11.112-40.852h-68.959l-11.111 40.853c-1.961 6.863-8.497 9.478-16.668 9.478-14.054-.001-32.682-8.825-32.682-20.917zm118.636-68.633-23.859-87.587-23.858 87.587z" fill="url(#SVGID_7_)"/><path d="m425 287.481v77.783c0 8.824-10.458 15.687-24.838 15.687-12.746 0-22.551-6.863-22.551-15.687v-7.19c-11.766 13.727-26.799 26.146-49.676 26.146-22.551 0-41.833-13.727-41.833-43.467 0-38.564 31.375-49.35 76.474-49.35h11.766v-3.268c0-11.112-5.882-24.185-24.511-24.185-26.8 0-29.414 10.785-38.239 10.785-11.111 0-16.995-13.399-16.995-25.165 0-15.36 31.702-26.146 55.887-26.146 53.6 0 74.516 31.048 74.516 64.057zm-50.658 28.432h-1.308c-18.628 0-35.949 1.961-35.949 17.649 0 9.477 5.229 13.726 12.746 13.726 10.131 0 24.511-13.399 24.511-30.067z" fill="url(#SVGID_8_)"/></g></g></svg>