<?xml version="1.0" encoding="iso-8859-1"?>
<!-- Generator: Adobe Illustrator 19.0.0, SVG Export Plug-In . SVG Version: 6.00 Build 0)  -->
<svg version="1.1" id="Capa_1" xmlns="http://www.w3.org/2000/svg" xmlns:xlink="http://www.w3.org/1999/xlink" x="0px" y="0px"
	 viewBox="0 0 469.334 469.334" style="enable-background:new 0 0 469.334 469.334;" xml:space="preserve">
<path style="fill:#FEF7EA;" d="M426.667,469.334H42.671c-23.564,0-42.667-19.103-42.667-42.667V42.671
	c0-23.564,19.103-42.667,42.667-42.667h383.996c23.564,0,42.667,19.103,42.667,42.667v383.996
	C469.334,450.231,450.231,469.334,426.667,469.334z"/>
<path style="fill:#FDECCC;" d="M426.667,448c0,11.782-9.551,21.333-21.333,21.333l0,0H42.667C19.103,469.333,0,450.231,0,426.667
	l0,0v-384C0,19.103,19.102,0,42.667,0c0,0,0,0,0,0H256c11.782,0,21.333,9.551,21.333,21.333s9.551,21.333,21.333,21.333c0,0,0,0,0,0
	H384c23.564,0,42.667,19.103,42.667,42.667v0C426.667,108.898,407.564,128,384,128l0,0H192c-11.782,0-21.333,9.551-21.333,21.333
	c0,0,0,0,0,0c0,11.782,9.551,21.333,21.333,21.333c0,0,0,0,0,0h106.667c11.782,0,21.333,9.551,21.333,21.333l0,0
	c0,11.782-9.551,21.333-21.333,21.333c0,0,0,0,0,0h-192c-11.782,0-21.333,9.551-21.333,21.333c0,0,0,0,0,0
	c0,11.782,9.551,21.333,21.333,21.333c0,0,0,0,0,0h106.667C236.898,256,256,275.103,256,298.667v0V384
	c0,23.564,19.102,42.667,42.667,42.667h106.667C417.115,426.667,426.667,436.218,426.667,448L426.667,448z"/>
<path style="fill:#F3B4D4;" d="M32.001,127.997h405.336c5.891,0,10.667,4.776,10.667,10.667v0c0,5.891-4.776,10.667-10.667,10.667
	H32.001c-5.891,0-10.667-4.776-10.667-10.667v0C21.334,132.772,26.109,127.997,32.001,127.997z"/>
<path style="fill:#ED8DBD;" d="M32.001,127.997h117.336c5.891,0,10.667,4.776,10.667,10.667v0c0,5.891-4.776,10.667-10.667,10.667
	H32.001c-5.891,0-10.667-4.776-10.667-10.667v0C21.334,132.772,26.109,127.997,32.001,127.997z"/>
<path style="fill:#DDD5F0;" d="M32.001,191.997h405.336c5.891,0,10.667,4.776,10.667,10.667v0c0,5.891-4.776,10.667-10.667,10.667
	H32.001c-5.891,0-10.667-4.776-10.667-10.667v0C21.334,196.772,26.109,191.997,32.001,191.997z"/>
<path style="fill:#C6B9E6;" d="M32.001,191.997h85.336c5.891,0,10.667,4.776,10.667,10.667v0c0,5.891-4.776,10.667-10.667,10.667
	H32.001c-5.891,0-10.667-4.776-10.667-10.667v0C21.334,196.772,26.109,191.997,32.001,191.997z"/>
<g>
	<path style="fill:#DDD5F0;" d="M32.001,255.997h405.336c5.891,0,10.667,4.776,10.667,10.666l0,0
		c0,5.891-4.776,10.667-10.667,10.667H32.001c-5.891,0-10.667-4.776-10.667-10.667l0,0
		C21.334,260.772,26.109,255.997,32.001,255.997z"/>
	<path style="fill:#DDD5F0;" d="M32.001,319.997h405.336c5.891,0,10.667,4.776,10.667,10.667l0,0
		c0,5.891-4.776,10.667-10.667,10.667H32.001c-5.891,0-10.667-4.776-10.667-10.667l0,0
		C21.334,324.772,26.109,319.997,32.001,319.997z"/>
	<path style="fill:#DDD5F0;" d="M32.001,383.997h405.336c5.891,0,10.667,4.776,10.667,10.667l0,0
		c0,5.891-4.776,10.667-10.667,10.667H32.001c-5.891,0-10.667-4.776-10.667-10.667l0,0
		C21.334,388.772,26.109,383.997,32.001,383.997z"/>
</g>
<g>
	<path style="fill:#C6B9E6;" d="M32.001,255.997h85.336c5.891,0,10.667,4.776,10.667,10.666l0,0c0,5.891-4.776,10.667-10.667,10.667
		H32.001c-5.891,0-10.667-4.776-10.667-10.667l0,0C21.334,260.772,26.109,255.997,32.001,255.997z"/>
	<path style="fill:#C6B9E6;" d="M32.001,319.997h85.336c5.891,0,10.667,4.776,10.667,10.667l0,0c0,5.891-4.776,10.667-10.667,10.667
		H32.001c-5.891,0-10.667-4.776-10.667-10.667l0,0C21.334,324.772,26.109,319.997,32.001,319.997z"/>
	<path style="fill:#C6B9E6;" d="M32.001,383.997h85.336c5.891,0,10.667,4.776,10.667,10.667l0,0c0,5.891-4.776,10.667-10.667,10.667
		H32.001c-5.891,0-10.667-4.776-10.667-10.667l0,0C21.334,388.772,26.109,383.997,32.001,383.997z"/>
</g>
<path style="fill:#ED8DBD;" d="M117.333,21.334L117.333,21.334c5.891,0,10.667,4.776,10.667,10.667v405.336
	c0,5.891-4.776,10.667-10.667,10.667l0,0c-5.891,0-10.667-4.776-10.667-10.667V32.001C106.667,26.109,111.442,21.334,117.333,21.334
	z"/>
<path style="fill:#D80E70;" d="M415.476,426.667L415.476,426.667c16.766,0,30.358-13.592,30.358-30.358
	c0-3.263-0.526-6.505-1.558-9.6L339.714,73.025c-6.043-18.129-23.009-30.358-42.119-30.358h0c-19.11,0-36.076,12.228-42.119,30.358
	L150.914,386.709c-5.302,15.906,3.294,33.098,19.2,38.4c3.095,1.032,6.337,1.558,9.6,1.558h0c13.067,0,24.668-8.362,28.8-20.758
	l21.525-64.575h135.112l21.525,64.575C390.808,418.305,402.409,426.667,415.476,426.667z M251.373,277.333l46.223-138.667
	l46.223,138.667H251.373z"/>
<path style="fill:#A40068;" d="M288,128c-5.891,0-10.667,4.776-10.667,10.667c0,0,0,0,0,0l-85.333,256
	c0,5.891,4.776,10.667,10.667,10.667c0,0,0,0,0,0c5.891,0,10.667-4.776,10.667-10.667l0,0l85.333-256
	C298.667,132.776,293.891,128,288,128L288,128z"/>
<path style="fill:#FF7F92;" d="M266.667,85.333C260.776,85.333,256,90.109,256,96l-85.333,256c0,5.891,4.776,10.667,10.667,10.667h0
	c5.891,0,10.667-4.776,10.667-10.667l0,0l85.333-256C277.333,90.109,272.558,85.333,266.667,85.333L266.667,85.333z"/>
<g>
	<path style="fill:#A40068;" d="M224.004,319.997H352c5.891,0,10.667,4.776,10.667,10.667l0,0c0,5.891-4.776,10.667-10.667,10.667
		H224.004c-5.891,0-10.667-4.776-10.667-10.667l0,0C213.337,324.772,218.112,319.997,224.004,319.997z"/>
	<path style="fill:#A40068;" d="M330.667,64c5.891,0,10.667,4.776,10.667,10.667v0l106.667,320c0,5.891-4.776,10.667-10.667,10.667
		c-5.891,0-10.667-4.776-10.667-10.667l0,0L320,74.667C320,68.776,324.776,64,330.667,64L330.667,64L330.667,64z"/>
</g>
<path style="fill:#FF7F92;" d="M266.664,277.337h63.996c5.891,0,10.667,4.776,10.667,10.667l0,0c0,5.891-4.776,10.667-10.667,10.667
	h-63.996c-5.891,0-10.667-4.776-10.667-10.667l0,0C255.997,282.112,260.772,277.337,266.664,277.337z"/>
<g>
</g>
<g>
</g>
<g>
</g>
<g>
</g>
<g>
</g>
<g>
</g>
<g>
</g>
<g>
</g>
<g>
</g>
<g>
</g>
<g>
</g>
<g>
</g>
<g>
</g>
<g>
</g>
<g>
</g>
</svg>
