<svg id="Capa_1" enable-background="new 0 0 497 497" height="512" viewBox="0 0 497 497" width="512" xmlns="http://www.w3.org/2000/svg"><g><path d="m445.81 452.625c0 24.508-19.907 44.375-44.464 44.375h-305.692c-24.557 0-44.464-19.867-44.464-44.375v-408.25c0-24.508 19.907-44.375 44.464-44.375h190.303c8.857 0 17.35 3.516 23.606 9.773l126.505 126.521c6.239 6.239 9.742 14.694 9.742 23.508z" fill="#f9f8f9"/><path d="m125.65 497h-30c-24.55 0-44.46-19.87-44.46-44.38v-408.24c0-24.51 19.91-44.38 44.46-44.38h30c-24.55 0-44.46 19.87-44.46 44.38v408.24c0 24.51 19.91 44.38 44.46 44.38z" fill="#e3e0e4"/><path d="m445.81 159.8v16.24h-115.96c-33.12 0-60.06-26.95-60.06-60.07v-115.97h16.17c8.85 0 17.35 3.52 23.6 9.77l126.51 126.52c6.24 6.24 9.74 14.7 9.74 23.51z" fill="#e3e0e4"/><path d="m442.82 146.04h-112.97c-16.6 0-30.06-13.46-30.06-30.07v-112.96c3.61 1.63 6.92 3.91 9.77 6.76l126.51 126.52c2.85 2.85 5.12 6.15 6.75 9.75z" fill="#faf063"/><path d="m427.5 431h-358c-22.091 0-40-17.909-40-40v-146c0-22.091 17.909-40 40-40h358c22.091 0 40 17.909 40 40v146c0 22.091-17.909 40-40 40z" fill="#faf063"/><path d="m94.5 431h-25c-22.09 0-40-17.91-40-40v-146c0-22.09 17.91-40 40-40h25c-22.09 0-40 17.91-40 40v146c0 22.09 17.91 40 40 40z" fill="#f3d332"/><g fill="#f9f8f9"><path d="m278.167 253.504c-4.142 0-7.5 3.357-7.5 7.5v113.992c0 4.143 3.358 7.5 7.5 7.5s7.5-3.357 7.5-7.5v-113.992c0-4.143-3.357-7.5-7.5-7.5z"/><path d="m364.031 268.921c4.142 0 7.5-3.357 7.5-7.5s-3.358-7.5-7.5-7.5h-45.863c-4.142 0-7.5 3.357-7.5 7.5v113.158c0 4.143 3.358 7.5 7.5 7.5s7.5-3.357 7.5-7.5v-50.15h34.72c4.142 0 7.5-3.357 7.5-7.5s-3.358-7.5-7.5-7.5h-34.72v-40.508z"/><path d="m239.167 310.5h-34.101c-4.142 0-7.5 3.357-7.5 7.5s3.358 7.5 7.5 7.5h26.207c-2.199 20.785-13.855 41.996-41.308 41.996-27.292 0-49.496-22.204-49.496-49.496s22.204-49.496 49.496-49.496c9.92 0 19.488 2.921 27.668 8.448 3.433 2.318 8.095 1.416 10.414-2.017 2.319-3.432 1.416-8.094-2.016-10.413-10.67-7.208-23.142-11.019-36.066-11.019-35.563 0-64.496 28.933-64.496 64.496s28.933 64.496 64.496 64.496c17.297 0 31.9-6.732 42.23-19.469 9.332-11.506 14.472-27.497 14.472-45.027 0-4.142-3.357-7.499-7.5-7.499z"/></g></g></svg>