<svg width="512" height="497" viewBox="0 0 512 497" fill="none" xmlns="http://www.w3.org/2000/svg">
<path d="M437.02 74.981C388.667 26.629 324.38 0 256 0C193.371 0 133.084 22.87 86.246 64.396C83.147 67.144 82.862 71.884 85.61 74.984C88.358 78.083 93.097 78.368 96.197 75.62C140.289 36.529 197.041 0 256 0C388.888 0 512 123.112 512 256C512 388.888 388.888 497 256 497C123.112 497 15 388.888 15 256C15 197.041 36.529 140.288 75.62 96.197C78.368 93.098 78.083 88.357 74.984 85.61C71.884 82.861 67.144 83.147 64.397 86.246C22.87 133.084 0 193.37 0 256C0 324.38 37.259 377.924 85.61 426.276C133.963 474.628 187.62 483.5 256 483.5C324.38 483.5 388.667 485.371 437.02 437.019C485.371 388.667 502.5 324.38 502.5 256C502.5 187.62 485.371 123.333 437.02 74.981Z" fill="#E91E63"/>
<path d="M111.1 211.3C119.167 211.3 125.367 213 129.7 216.4C134.033 219.733 136.2 223.733 136.2 228.4C136.2 233.067 134.633 237.5 131.5 241.7C128.367 245.833 123.933 249.3 118.2 252.1C131.133 254.1 137.6 260.4 137.6 271C137.6 276.133 135.933 281.267 132.6 286.4C126.267 296.2 116.5 301.1 103.3 301.1C96.7 301.1 91.9667 300.1 89.1 298.1C86.2333 296.1 84.8 293.067 84.8 289C84.8 284.933 86.0667 274.5 88.6 257.7C91.1333 240.833 92.4 230.067 92.4 225.4C92.4 220.667 91.9 216.733 90.9 213.6C99.1 212.067 105.833 211.3 111.1 211.3ZM98.4 257.3C96.6 269.167 95.7 277.367 95.7 281.9C95.7 286.367 95.9667 289.6 96.5 291.6C99.0333 293.267 102.2 294.1 106 294.1C112.333 294.1 117.4 292 121.2 287.8C125 283.6 126.9 278.933 126.9 273.8C126.9 268.667 125.267 264.467 122 261.2C118.8 257.867 113.8 256.1 107 255.9C104.067 256.567 101.2 257.033 98.4 257.3ZM99.2 251.8C107.933 251.267 114.533 249.1 119 245.3C123.467 241.5 125.7 237.3 125.7 232.7C125.7 228.033 124.4 224.267 121.8 221.4C119.267 218.533 115.333 217.1 110 217.1C108.4 217.1 106.3 217.333 103.7 217.8C103.633 221.667 102.133 233 99.2 251.8ZM150.309 284.7C150.309 281.033 150.909 275.3 152.109 267.5C153.375 259.7 154.009 253 154.009 247.4C154.009 241.8 153.309 237.667 151.909 235C153.575 233.467 155.575 232.7 157.909 232.7C162.842 232.7 165.309 235.233 165.309 240.3C165.309 241.967 164.509 248.367 162.909 259.5C161.375 270.633 160.609 278.833 160.609 284.1C160.609 289.367 162.209 292 165.409 292C168.075 292 171.309 288.867 175.109 282.6C178.909 276.333 182.142 269.3 184.809 261.5C187.475 253.633 188.809 247.833 188.809 244.1C188.809 240.3 188.309 237.267 187.309 235C189.042 233.467 191.075 232.7 193.409 232.7C198.342 232.7 200.809 235.233 200.809 240.3C200.809 243.967 200.175 249.6 198.909 257.2C197.642 264.8 197.009 270.767 197.009 275.1C197.009 284.567 198.575 291.867 201.709 297C199.709 299.467 197.442 300.7 194.909 300.7C189.175 300.7 186.309 293.667 186.309 279.6C186.309 278.267 186.709 273.9 187.509 266.5C181.842 279.9 177.109 289.067 173.309 294C171.709 296.133 169.909 297.933 167.909 299.4C165.975 300.867 164.075 301.6 162.209 301.6C154.275 301.6 150.309 295.967 150.309 284.7ZM242.584 294.6C247.984 294.6 252.218 291.667 255.284 285.8C258.418 279.867 259.984 272.367 259.984 263.3C259.984 257.233 259.251 252.2 257.784 248.2C256.384 244.2 254.384 242.2 251.784 242.2C249.184 242.2 246.184 244.8 242.784 250C239.451 255.2 236.484 261.567 233.884 269.1C231.284 276.567 229.818 283.333 229.484 289.4C234.218 292.867 238.584 294.6 242.584 294.6ZM218.084 298.2C219.484 289.4 221.118 276.233 222.984 258.7C224.918 241.1 225.884 229.867 225.884 225C225.884 220.133 225.751 216.6 225.484 214.4C225.218 212.133 224.651 210.167 223.784 208.5C225.451 207.033 227.584 206.3 230.184 206.3C232.784 206.3 234.618 207.1 235.684 208.7C236.818 210.3 237.384 212.967 237.384 216.7C237.384 220.433 235.184 236.667 230.784 265.4C233.784 255.667 237.518 247.6 241.984 241.2C246.451 234.8 250.551 231.6 254.284 231.6C258.818 231.6 262.618 234 265.684 238.8C268.818 243.533 270.384 250.667 270.384 260.2C270.384 270.533 268.251 279.8 263.984 288C261.851 292 258.984 295.233 255.384 297.7C251.851 300.167 247.851 301.4 243.384 301.4C237.651 301.4 232.784 299.167 228.784 294.7C228.384 296.9 227.784 298.467 226.984 299.4C226.184 300.333 224.918 300.8 223.184 300.8C221.518 300.8 219.818 299.933 218.084 298.2ZM310.748 294.6C316.148 294.6 320.382 291.667 323.448 285.8C326.582 279.867 328.148 272.367 328.148 263.3C328.148 257.233 327.415 252.2 325.948 248.2C324.548 244.2 322.548 242.2 319.948 242.2C317.348 242.2 314.348 244.8 310.948 250C307.615 255.2 304.648 261.567 302.048 269.1C299.448 276.567 297.982 283.333 297.648 289.4C302.382 292.867 306.748 294.6 310.748 294.6ZM286.248 298.2C287.648 289.4 289.282 276.233 291.148 258.7C293.082 241.1 294.048 229.867 294.048 225C294.048 220.133 293.915 216.6 293.648 214.4C293.382 212.133 292.815 210.167 291.948 208.5C293.615 207.033 295.748 206.3 298.348 206.3C300.948 206.3 302.782 207.1 303.848 208.7C304.982 210.3 305.548 212.967 305.548 216.7C305.548 220.433 303.348 236.667 298.948 265.4C301.948 255.667 305.682 247.6 310.148 241.2C314.615 234.8 318.715 231.6 322.448 231.6C326.982 231.6 330.782 234 333.848 238.8C336.982 243.533 338.548 250.667 338.548 260.2C338.548 270.533 336.415 279.8 332.148 288C330.015 292 327.148 295.233 323.548 297.7C320.015 300.167 316.015 301.4 311.548 301.4C305.815 301.4 300.948 299.167 296.948 294.7C296.548 296.9 295.948 298.467 295.148 299.4C294.348 300.333 293.082 300.8 291.348 300.8C289.682 300.8 287.982 299.933 286.248 298.2ZM373.713 216.6C373.713 220.267 372.413 230.633 369.813 247.7C367.279 264.767 366.013 276.6 366.013 283.2C366.013 289.733 367.279 294.367 369.813 297.1C367.746 299.5 365.446 300.7 362.913 300.7C357.713 300.7 355.113 296.3 355.113 287.5C355.113 284.233 356.279 274.5 358.613 258.3C361.013 242.1 362.213 230.467 362.213 223.4C362.213 216.267 361.513 211.3 360.113 208.5C360.846 207.9 361.879 207.4 363.213 207C364.613 206.533 365.813 206.3 366.813 206.3C369.146 206.3 370.879 207.1 372.013 208.7C373.146 210.3 373.713 212.933 373.713 216.6ZM401.516 271.9C399.716 271.9 397.916 271.8 396.116 271.6C396.182 279 397.549 284.633 400.216 288.5C402.949 292.367 406.749 294.3 411.616 294.3C418.482 294.3 423.482 290.933 426.616 284.2C428.216 285.733 429.016 287.6 429.016 289.8C429.016 293.533 426.916 296.467 422.716 298.6C418.582 300.667 414.249 301.7 409.716 301.7C401.649 301.7 395.549 299.133 391.416 294C387.349 288.867 385.316 282.233 385.316 274.1C385.316 269.233 386.082 264.333 387.616 259.4C389.149 254.4 391.249 249.833 393.916 245.7C396.582 241.5 400.016 238.1 404.216 235.5C408.416 232.9 413.016 231.6 418.016 231.6C423.016 231.6 426.816 232.867 429.416 235.4C432.082 237.933 433.416 241.2 433.416 245.2C433.416 251.667 430.416 257.733 424.416 263.4C418.482 269.067 410.849 271.9 401.516 271.9ZM422.916 248.5C422.916 245.767 422.049 243.533 420.316 241.8C418.649 240 416.316 239.1 413.316 239.1C410.382 239.1 407.816 239.933 405.616 241.6C403.482 243.267 401.782 245.5 400.516 248.3C398.249 253.5 396.849 259.133 396.316 265.2C397.916 265.4 399.416 265.5 400.816 265.5C407.616 265.5 412.982 263.767 416.916 260.3C420.916 256.767 422.916 252.833 422.916 248.5Z" fill="#E91E63"/>
</svg>
