<svg viewBox="0 0 512 512" xmlns="http://www.w3.org/2000/svg" xmlns:xlink="http://www.w3.org/1999/xlink"><linearGradient id="a" gradientTransform="matrix(1 0 0 -1 0 -15158)" gradientUnits="userSpaceOnUse" x1="0" x2="512" y1="-15414" y2="-15414"><stop offset="0" stop-color="#00f1ff"/><stop offset=".231" stop-color="#00d8ff"/><stop offset=".5138" stop-color="#00c0ff"/><stop offset=".7773" stop-color="#00b2ff"/><stop offset="1" stop-color="#00adff"/></linearGradient><path d="m512 256c0 141.386719-114.613281 256-256 256s-256-114.613281-256-256 114.613281-256 256-256 256 114.613281 256 256zm0 0" fill="url(#a)"/><g fill="#fff"><path d="m369.730469 423.5h-227.460938c-29.648437 0-53.769531-24.121094-53.769531-53.769531v-12.925781c0-8.285157 6.714844-15 15-15s15 6.714843 15 15v12.925781c0 13.105469 10.664062 23.769531 23.769531 23.769531h227.460938c13.105469 0 23.769531-10.664062 23.769531-23.769531v-227.460938c0-13.105469-10.664062-23.769531-23.769531-23.769531h-227.460938c-13.105469 0-23.769531 10.664062-23.769531 23.769531v12.925781c0 8.285157-6.714844 15-15 15s-15-6.714843-15-15v-12.925781c0-29.648437 24.121094-53.769531 53.769531-53.769531h227.460938c29.648437 0 53.769531 24.121094 53.769531 53.769531v227.460938c0 29.648437-24.121094 53.769531-53.769531 53.769531zm0 0"/><path d="m159.074219 338.203125c-3.886719 0-7.773438-1.5-10.710938-4.492187l-47.957031-48.886719c-15.867188-15.929688-15.847656-41.800781.058594-57.707031l47.972656-48.25c5.839844-5.875 15.335938-5.902344 21.210938-.0625 5.875 5.839843 5.902343 15.339843.0625 21.214843l-48 48.277344c-4.261719 4.261719-4.261719 11.144531-.03125 15.375.035156.03125.066406.066406.101562.101563l48 48.925781c5.800781 5.914062 5.710938 15.410156-.203125 21.210937-2.921875 2.863282-6.714844 4.292969-10.503906 4.292969zm0 0"/><path d="m305.757812 271h-137.640624c-8.28125 0-15-6.714844-15-15s6.71875-15 15-15h137.640624c8.28125 0 15 6.714844 15 15s-6.71875 15-15 15zm0 0"/></g></svg>