<?xml version="1.0" encoding="iso-8859-1"?>
<!-- Generator: Adobe Illustrator 19.0.0, SVG Export Plug-In . SVG Version: 6.00 Build 0)  -->
<svg version="1.1" id="Capa_1" xmlns="http://www.w3.org/2000/svg" xmlns:xlink="http://www.w3.org/1999/xlink" x="0px" y="0px"
	 viewBox="0 0 512 512" style="enable-background:new 0 0 512 512;" xml:space="preserve">
<g>
	<g transform="translate(0 1)">
		<path style="fill:#2E7D32;" d="M469.333,7.533H42.667c-9.054-0.003-17.737,3.593-24.139,9.995S8.531,32.613,8.533,41.667v426.667
			c-0.002,9.053,3.593,17.737,9.995,24.139s15.085,9.997,24.139,9.995h426.667c9.053,0.002,17.737-3.593,24.139-9.995
			s9.997-15.085,9.995-24.139V41.667c0.003-9.054-3.593-17.737-9.995-24.139S478.387,7.531,469.333,7.533z"/>
		<path style="fill:#4CAF50;" d="M445.499,7.533H40.901C22.541,8.029,8.054,23.306,8.533,41.667v426.667
			c-0.48,18.361,14.008,33.638,32.368,34.133h404.598c18.36-0.495,32.847-15.773,32.368-34.133V41.667
			C478.346,23.306,463.859,8.029,445.499,7.533z"/>
		<path style="fill:#607D8B;" d="M469.333,58.733v392.533c0,9.426-7.641,17.067-17.067,17.067H59.733
			c-9.426,0-17.067-7.641-17.067-17.067V58.733c0-9.426,7.641-17.067,17.067-17.067h392.533
			C461.692,41.667,469.333,49.308,469.333,58.733z"/>
		<path style="fill:#CFD8DC;" d="M443.733,58.733v392.533c0,9.426-7.641,17.067-17.067,17.067H59.733
			c-9.426,0-17.067-7.641-17.067-17.067V58.733c0-9.426,7.641-17.067,17.067-17.067h366.933
			C436.092,41.667,443.733,49.308,443.733,58.733z"/>
		<path style="fill:#8BC34A;" d="M366.933,383.016H409.6c4.707-0.014,8.52-3.826,8.533-8.533V92.867
			c-0.014-4.707-3.826-8.52-8.533-8.533H221.867"/>
		<g>
			<path style="fill:#4CAF50;" d="M213.333,282.136v96.358c-0.034,3.869,2.513,7.287,6.229,8.363l136.533,38.485
				c2.596,0.724,5.381,0.18,7.514-1.466c2.133-1.646,3.365-4.203,3.323-6.897V131.523c0.034-3.869-2.513-7.287-6.229-8.363
				L224.171,84.675c-2.596-0.724-5.381-0.18-7.514,1.466c-2.133,1.646-3.365,4.203-3.323,6.897v134.827"/>
			<path style="fill:#4CAF50;" d="M243.797,261.912l-51.627,34.304c-2.552,1.724-5.848,1.896-8.566,0.448s-4.413-4.28-4.405-7.36
				v-17.237h-76.8c-4.713,0-8.533-3.82-8.533-8.533v-17.067c0-4.713,3.821-8.533,8.533-8.533h76.8v-17.237
				c-0.008-3.08,1.687-5.911,4.405-7.36c2.718-1.448,6.014-1.276,8.566,0.448l51.627,34.304c2.283,1.56,3.648,4.147,3.648,6.912
				S246.08,260.352,243.797,261.912z"/>
		</g>
	</g>
	<g>
		<path d="M469.333,0H42.667C19.114,0.028,0.028,19.114,0,42.667v426.667C0.028,492.886,19.114,511.972,42.667,512h426.667
			c23.553-0.028,42.639-19.114,42.667-42.667V42.667C511.972,19.114,492.886,0.028,469.333,0z M494.933,469.333
			c-0.015,14.132-11.468,25.585-25.6,25.6H42.667c-14.132-0.015-25.585-11.468-25.6-25.6V42.667
			c0.015-14.132,11.468-25.585,25.6-25.6h426.667c14.132,0.015,25.585,11.468,25.6,25.6V469.333z"/>
		<path d="M452.267,34.133H59.733c-14.132,0.015-25.585,11.468-25.6,25.6v392.533c0.015,14.132,11.468,25.585,25.6,25.6h392.533
			c14.132-0.015,25.585-11.468,25.6-25.6V59.733C477.851,45.601,466.399,34.149,452.267,34.133z M460.8,452.267
			c-0.006,4.71-3.823,8.527-8.533,8.533H59.733c-4.71-0.006-8.527-3.823-8.533-8.533V59.733c0.006-4.71,3.823-8.527,8.533-8.533
			h392.533c4.71,0.006,8.527,3.823,8.533,8.533V452.267z"/>
		<path d="M409.6,76.8H221.867c-0.189,0-0.347,0.096-0.533,0.108c-3.517,0.067-6.923,1.241-9.734,3.355
			c-4.314,3.261-6.835,8.367-6.8,13.775V212.93l-7.846-5.214c-5.167-3.494-11.842-3.847-17.349-0.918
			c-5.507,2.929-8.946,8.66-8.938,14.898v8.704H102.4c-9.422,0.009-17.057,7.645-17.067,17.067v17.067
			c0.009,9.422,7.645,17.057,17.067,17.067h68.267v8.704c0,9.32,7.551,16.877,16.87,16.883c3.334,0.004,6.593-0.994,9.354-2.862
			l7.909-5.255v80.422c-0.021,7.686,5.059,14.453,12.446,16.579l136.538,38.483c1.52,0.431,3.091,0.649,4.671,0.65
			c3.69-0.001,7.278-1.213,10.213-3.45c4.314-3.261,6.835-8.367,6.8-13.775V392.55H409.6c9.422-0.009,17.057-7.645,17.067-17.067
			V93.867C426.657,84.445,419.022,76.809,409.6,76.8z M187.733,290.304v-17.237c0-4.713-3.82-8.533-8.533-8.533h-76.8v-17.067h76.8
			c4.713,0,8.533-3.821,8.533-8.533l-0.283-17.042l51.537,33.971l-28.851,19.388c-1.092,0.442-2.08,1.105-2.901,1.949
			L187.733,290.304z M221.867,379.492v-91.762l26.65-17.708l0.096-0.067c4.627-3.161,7.386-8.41,7.367-14.013
			c-0.019-5.603-2.814-10.833-7.462-13.962l-26.651-17.709l-0.012-130.383L358.4,132.521l0.011,251.441l-0.011,0.055l0.011,0.055
			l0.002,34.058L221.867,379.492z M409.6,375.484h-34.133V132.521c0.019-7.685-5.061-14.45-12.446-16.575l-78.336-22.079H409.6
			V375.484z"/>
	</g>
</g>
<g>
</g>
<g>
</g>
<g>
</g>
<g>
</g>
<g>
</g>
<g>
</g>
<g>
</g>
<g>
</g>
<g>
</g>
<g>
</g>
<g>
</g>
<g>
</g>
<g>
</g>
<g>
</g>
<g>
</g>
</svg>
