<svg id="Capa_1" enable-background="new 0 0 512 512" height="512" viewBox="0 0 512 512" width="512" xmlns="http://www.w3.org/2000/svg"><g><path d="m256 0-20.016 91.667 20.016 80.333 93.382-129.471c-22.692-26.059-56.114-42.529-93.382-42.529z" fill="#b40042"/><path d="m256 0c-37.265 0-70.684 16.468-93.377 42.523l93.377 129.477z" fill="#e50058"/><path d="m241 270.333h30v194.215h-30z" fill="#00aa95"/><path d="m345.344 42.524c-34.027 0-65.189 12.247-89.336 32.563l49.504 206.754c43.714-19.101 74.267-62.714 74.267-113.469v-125.848z" fill="#ff415b"/><path d="m305.512 281.841v-100.462c0-42.657-19.235-80.821-49.504-106.292-.002.002-.005.004-.007.006l-20.016 113.611 20.015 103.446c17.606 0 34.348-3.684 49.512-10.309z" fill="#e50058"/><path d="m166.656 42.524h-34.435v125.848c0 68.361 55.418 123.779 123.779 123.779v-217.058c-24.148-20.32-55.313-32.569-89.344-32.569z" fill="#ff415b"/><path d="m338.422 377.123c-38.041 0-70.401 24.299-82.422 58.22l-20.016 38.008 20.016 38.649h76.167c48.284 0 87.425-39.142 87.425-87.426v-47.452h-81.17z" fill="#00cc76"/><path d="m173.578 377.123h-81.17v47.452c0 48.284 39.142 87.426 87.426 87.426h76.166v-76.657c-12.02-33.922-44.381-58.221-82.422-58.221z" fill="#a5e887"/></g></svg>