<svg width="512" height="512" viewBox="0 0 512 512" fill="none" xmlns="http://www.w3.org/2000/svg">
<path d="M480.84 133.2C477.802 107.207 466.091 82.9973 447.597 64.4809C429.104 45.9644 404.909 34.2226 378.92 31.1519C297.252 21.5919 214.748 21.5919 133.08 31.1519C107.098 34.231 82.9123 45.9765 64.4271 64.4922C45.9419 83.0079 34.2362 107.213 31.2 133.2C21.6521 214.788 21.6521 297.212 31.2 378.8C34.2463 404.778 45.9564 428.972 64.4408 447.478C82.9251 465.984 107.105 477.723 133.08 480.8C163.389 484.336 193.696 486.557 224 487.464V300.048H288V487.496C318.304 486.579 348.611 484.357 378.92 480.832C404.909 477.761 429.104 466.019 447.597 447.503C466.091 428.987 477.802 404.777 480.84 378.784C485.596 338.029 487.987 297.032 488 256C487.987 214.963 485.597 173.961 480.84 133.2Z" fill="#FF6584"/>
<path d="M496.736 131.352C493.391 101.74 480.105 74.1379 459.048 53.0518C437.991 31.9656 410.407 18.6417 380.8 15.256C297.903 5.58395 214.162 5.58395 131.264 15.256C101.646 18.6282 74.0467 31.9461 52.9767 53.0334C31.9068 74.1208 18.6117 101.731 15.264 131.352C5.57866 214.163 5.57866 297.821 15.264 380.632C18.6117 410.242 31.8984 437.843 52.955 458.929C74.0116 480.015 101.594 493.339 131.2 496.728C188.528 503.432 230.688 503.56 240 504V316.048H272V504C290.296 503.384 283.744 503.768 304 502.864V284.048H272V252H421.152V123.848H357.152V91.848H154.856V123.848H325.144V155.928H154.856V187.928H357.144V155.928H389.144V220H240V284.08H208V470.88C183.568 469.752 159.072 467.76 134.936 464.944C112.494 462.377 91.5845 452.277 75.6221 436.294C59.6597 420.312 49.5868 399.39 47.048 376.944C37.6507 296.586 37.6507 215.406 47.048 135.048C49.5854 112.602 59.6578 91.6791 75.6205 75.696C91.5832 59.713 112.493 49.6139 134.936 47.048C215.373 37.672 296.627 37.672 377.064 47.048C399.507 49.6139 420.417 59.713 436.38 75.696C452.342 91.6791 462.415 112.602 464.952 135.048C469.617 175.197 471.97 215.581 472 256C471.97 296.416 469.617 336.798 464.952 376.944C462.413 399.391 452.339 420.314 436.375 436.297C420.411 452.28 399.5 462.378 377.056 464.944C363.456 466.544 349.752 467.784 336 468.84V500.992C350.992 499.872 365.952 498.456 380.8 496.728C410.419 493.353 438.017 480.033 459.086 458.944C480.156 437.856 493.451 410.245 496.8 380.624C501.587 339.255 503.991 297.645 504 256C503.971 214.346 501.545 172.728 496.736 131.352Z" fill="#D03A58"/>
</svg>
