<svg width="890" height="460" viewBox="0 0 890 460" fill="none" xmlns="http://www.w3.org/2000/svg">
<path d="M444.538 410.603C690.049 410.603 889.076 405.036 889.076 398.168C889.076 391.301 690.049 385.734 444.538 385.734C199.026 385.734 0 391.301 0 398.168C0 405.036 199.026 410.603 444.538 410.603Z" fill="#E6E6E6"/>
<path d="M681.445 263.431C680.884 263.439 680.322 263.447 679.753 263.447C679.184 263.447 678.623 263.439 678.062 263.431C648.304 262.755 626.736 244.162 632.226 224.654L645.613 177.066L648.996 165.024L708.973 166.047L712.617 177.827L726.965 224.193C733.04 243.808 711.472 262.755 681.445 263.431Z" fill="#3F3D56"/>
<path opacity="0.2" d="M712.617 177.827C702.391 183.672 690.79 186.684 679.012 186.55C667.234 186.416 655.704 183.142 645.613 177.066L648.997 165.024L708.973 166.047L712.617 177.827Z" fill="black"/>
<path d="M710.086 226.233C712.677 216.577 721.192 202.648 745.073 185.854C786.72 156.559 761.876 134.594 760.799 133.674C758.541 131.744 758.874 129.576 761.575 128.835C763.143 128.522 764.761 128.547 766.319 128.91C767.877 129.273 769.34 129.964 770.609 130.938C771.957 132.054 803.068 158.621 756.072 191.672C713.777 221.422 722.769 240.842 722.873 241.028C724.006 243.105 722.189 244.767 718.81 244.744C715.431 244.722 711.77 243.022 710.633 240.947C710.394 240.508 707.673 235.223 710.086 226.233Z" fill="#3F3D56"/>
<path d="M652.072 270.367C651.163 270.367 650.264 270.188 649.424 269.84C648.584 269.493 647.821 268.983 647.179 268.34C646.536 267.698 646.026 266.935 645.679 266.095C645.331 265.255 645.152 264.356 645.152 263.447V233.459C645.152 231.623 645.881 229.863 647.179 228.565C648.477 227.267 650.237 226.538 652.072 226.538C653.908 226.538 655.668 227.267 656.966 228.565C658.263 229.863 658.992 231.623 658.992 233.459V263.447C658.993 264.356 658.814 265.255 658.466 266.095C658.118 266.935 657.608 267.698 656.966 268.34C656.323 268.983 655.56 269.493 654.721 269.84C653.881 270.188 652.981 270.367 652.072 270.367V270.367Z" fill="#3F3D56"/>
<path d="M658.14 199.174C657.76 199.999 657.221 200.742 656.554 201.36C655.887 201.977 655.105 202.457 654.253 202.772C653.401 203.087 652.495 203.232 651.586 203.197C650.678 203.162 649.786 202.948 648.96 202.568L621.717 190.034C620.052 189.266 618.76 187.868 618.125 186.147C617.489 184.426 617.563 182.524 618.33 180.858C619.096 179.192 620.493 177.898 622.213 177.261C623.933 176.624 625.835 176.696 627.502 177.46L654.745 189.995C655.571 190.374 656.314 190.913 656.931 191.58C657.549 192.247 658.029 193.029 658.344 193.881C658.659 194.734 658.803 195.64 658.768 196.548C658.733 197.456 658.52 198.348 658.14 199.174V199.174Z" fill="#3F3D56"/>
<path d="M701.367 199.174C701.747 199.999 702.286 200.742 702.952 201.36C703.619 201.977 704.401 202.457 705.254 202.772C706.106 203.087 707.012 203.232 707.92 203.197C708.828 203.162 709.721 202.948 710.546 202.568L737.789 190.034C739.457 189.267 740.751 187.869 741.388 186.147C742.024 184.426 741.951 182.522 741.184 180.855C740.416 179.187 739.018 177.893 737.297 177.256C735.575 176.62 733.672 176.693 732.004 177.46L704.761 189.995C703.936 190.374 703.193 190.913 702.576 191.58C701.958 192.247 701.478 193.029 701.163 193.881C700.848 194.734 700.704 195.64 700.739 196.548C700.774 197.456 700.987 198.348 701.367 199.174V199.174Z" fill="#3F3D56"/>
<path d="M707.435 270.367C708.343 270.367 709.243 270.188 710.083 269.84C710.922 269.493 711.685 268.983 712.328 268.34C712.971 267.698 713.48 266.935 713.828 266.095C714.176 265.255 714.355 264.356 714.355 263.447V233.459C714.355 231.623 713.626 229.863 712.328 228.565C711.03 227.267 709.27 226.538 707.435 226.538C705.599 226.538 703.839 227.267 702.541 228.565C701.243 229.863 700.514 231.623 700.514 233.459V263.447C700.514 264.356 700.693 265.255 701.041 266.095C701.389 266.935 701.898 267.698 702.541 268.34C703.184 268.983 703.947 269.493 704.786 269.84C705.626 270.188 706.526 270.367 707.435 270.367V270.367Z" fill="#3F3D56"/>
<path d="M736.356 76.2247C736.954 75.4714 737.385 74.6 737.622 73.6677C737.859 72.7355 737.895 71.7637 737.729 70.8163L733.963 48.6593L730.196 26.5023C729.993 25.306 729.478 24.1842 728.704 23.2499C727.93 22.3155 726.923 21.6014 725.785 21.1794C724.648 20.7573 723.419 20.6422 722.223 20.8456C721.026 21.0489 719.904 21.5636 718.97 22.3379L701.665 36.6782L691.239 45.3177C684.286 44.0813 677.179 43.9741 670.192 45.0003L660.149 36.6782L642.844 22.3379C641.909 21.5636 640.787 21.0489 639.591 20.8456C638.395 20.6422 637.166 20.7574 636.028 21.1794C634.891 21.6014 633.884 22.3155 633.11 23.2499C632.335 24.1843 631.821 25.306 631.617 26.5023L627.851 48.6593L624.085 70.8163C623.884 71.9808 623.987 73.1776 624.386 74.29C617.931 84.1851 614.246 95.629 613.713 107.431C613.18 119.233 615.819 130.963 621.356 141.399C626.893 151.836 635.125 160.598 645.196 166.775C655.267 172.952 666.809 176.317 678.621 176.521C690.434 176.725 702.085 173.76 712.363 167.935C722.642 162.11 731.171 153.638 737.065 143.399C742.959 133.16 746.002 121.528 745.877 109.715C745.752 97.9012 742.465 86.3369 736.356 76.2247V76.2247Z" fill="#3F3D56"/>
<path d="M641.109 31.4176C640.699 31.4182 640.292 31.4921 639.908 31.6357C639.342 31.8415 638.842 32.1941 638.458 32.6572C638.074 33.1204 637.82 33.6774 637.723 34.271L633.156 61.1406C633.055 61.7329 633.112 62.3413 633.321 62.9046C633.53 63.4678 633.884 63.9662 634.346 64.3495C634.809 64.7328 635.364 64.9876 635.957 65.0883C636.549 65.1889 637.157 65.1319 637.721 64.9229L663.274 55.4435C663.837 55.2346 664.335 54.8811 664.719 54.4185C665.102 53.956 665.357 53.4007 665.457 52.8085C665.558 52.2163 665.501 51.608 665.292 51.0448C665.083 50.4816 664.73 49.9833 664.267 49.6L664.267 49.5992L643.281 32.2094C642.672 31.6993 641.904 31.4191 641.109 31.4176V31.4176Z" fill="#E6E6E6"/>
<path d="M720.704 31.4176C719.91 31.4191 719.141 31.6993 718.532 32.2094L697.547 49.6C697.084 49.9833 696.731 50.4816 696.522 51.0448C696.313 51.608 696.256 52.2163 696.357 52.8085C696.457 53.4007 696.712 53.956 697.095 54.4185C697.479 54.8811 697.977 55.2346 698.54 55.4435L724.093 64.9229C724.657 65.1319 725.265 65.1889 725.857 65.0883C726.449 64.9876 727.005 64.7328 727.467 64.3495C727.93 63.9662 728.284 63.4678 728.493 62.9046C728.702 62.3413 728.759 61.7329 728.658 61.1406L724.091 34.271C723.993 33.6774 723.74 33.1204 723.356 32.6572C722.972 32.1941 722.472 31.8415 721.906 31.6357C721.522 31.4921 721.115 31.4182 720.704 31.4176Z" fill="#E6E6E6"/>
<path d="M679.753 128.885C684.849 128.885 688.981 124.754 688.981 119.658C688.981 114.562 684.849 110.431 679.753 110.431C674.657 110.431 670.526 114.562 670.526 119.658C670.526 124.754 674.657 128.885 679.753 128.885Z" fill="#E6E6E6"/>
<path d="M679.753 117.351C683.151 117.351 685.905 116.318 685.905 115.044C685.905 113.77 683.151 112.737 679.753 112.737C676.356 112.737 673.602 113.77 673.602 115.044C673.602 116.318 676.356 117.351 679.753 117.351Z" fill="#3F3D56"/>
<path d="M675.14 125.04H683.598V135.421C683.598 135.976 683.489 136.526 683.276 137.039C683.064 137.552 682.752 138.018 682.359 138.411C681.967 138.804 681.5 139.115 680.987 139.328C680.474 139.54 679.924 139.65 679.369 139.65V139.65C678.247 139.65 677.172 139.204 676.379 138.411C675.585 137.618 675.14 136.542 675.14 135.421V125.04H675.14Z" fill="#FF6584"/>
<path d="M680.267 20.3795C679.823 21.2993 679.393 22.229 678.988 23.1777C674.216 34.3069 672.606 46.5368 674.337 58.5215C675.202 57.2655 676.112 55.9568 677.038 54.6338C675.056 43.1314 676.17 31.3089 680.267 20.3795V20.3795Z" fill="#3F3D56"/>
<path d="M687.187 28.8376C686.744 29.7574 686.313 30.6871 685.908 31.6358C681.136 42.765 679.527 54.9949 681.257 66.9797C682.123 65.7237 683.033 64.415 683.958 63.092C681.976 51.5896 683.091 39.767 687.187 28.8376V28.8376Z" fill="#3F3D56"/>
<path d="M708.523 194.889L707.548 182.491L706.573 170.093C706.521 169.423 706.293 168.779 705.912 168.226C705.532 167.673 705.013 167.229 704.407 166.94C703.801 166.651 703.129 166.526 702.46 166.579C701.79 166.632 701.147 166.86 700.593 167.24L690.344 174.283L682.859 179.426C682.381 178.866 681.786 178.417 681.118 178.108C680.449 177.8 679.721 177.64 678.984 177.64C678.248 177.64 677.52 177.8 676.851 178.108C676.182 178.417 675.588 178.866 675.11 179.426L667.625 174.283L657.376 167.24C656.822 166.859 656.179 166.632 655.509 166.579C654.84 166.526 654.168 166.651 653.562 166.94C652.956 167.229 652.437 167.673 652.057 168.226C651.676 168.779 651.448 169.423 651.396 170.093L650.421 182.491L649.446 194.889C649.393 195.558 649.518 196.23 649.807 196.836C650.096 197.442 650.54 197.961 651.093 198.341C651.646 198.722 652.29 198.949 652.96 199.002C653.629 199.055 654.3 198.93 654.906 198.641L666.131 193.286L675.354 188.887C675.828 189.367 676.393 189.749 677.017 190.01C677.64 190.27 678.309 190.405 678.984 190.405C679.66 190.405 680.329 190.27 680.952 190.01C681.575 189.749 682.141 189.367 682.615 188.887L691.838 193.286L703.062 198.641C703.668 198.93 704.34 199.055 705.009 199.002C705.679 198.95 706.322 198.722 706.876 198.341C707.429 197.961 707.873 197.442 708.162 196.836C708.451 196.23 708.576 195.558 708.523 194.889V194.889Z" fill="#FF6584"/>
<path d="M667.451 111.968C668.725 111.968 669.757 110.936 669.757 109.662C669.757 108.388 668.725 107.355 667.451 107.355C666.177 107.355 665.144 108.388 665.144 109.662C665.144 110.936 666.177 111.968 667.451 111.968Z" fill="#E6E6E6"/>
<path d="M692.056 111.968C693.33 111.968 694.363 110.936 694.363 109.662C694.363 108.388 693.33 107.355 692.056 107.355C690.782 107.355 689.75 108.388 689.75 109.662C689.75 110.936 690.782 111.968 692.056 111.968Z" fill="#E6E6E6"/>
<path d="M233.426 243.052C233.987 243.059 234.548 243.067 235.117 243.067C235.686 243.067 236.247 243.059 236.809 243.052C266.566 242.375 288.135 223.783 282.644 204.275L269.257 156.686L265.874 144.645L205.898 145.667L202.253 157.447L187.905 203.814C181.831 223.429 203.399 242.375 233.426 243.052Z" fill="#3F3D56"/>
<path opacity="0.2" d="M202.253 157.447C212.479 163.293 224.08 166.304 235.859 166.17C247.637 166.037 259.166 162.763 269.257 156.686L265.874 144.645L205.898 145.667L202.253 157.447Z" fill="black"/>
<path d="M197.5 200.214C191.026 192.595 177.37 183.649 148.599 178.688C98.422 170.032 111.478 139.548 112.058 138.256C113.273 135.545 112.044 133.728 109.286 134.215C107.734 134.602 106.283 135.318 105.03 136.312C103.777 137.307 102.751 138.557 102.021 139.981C101.279 141.566 84.5288 178.891 141.148 188.654C192.105 197.444 192.287 218.844 192.273 219.056C192.138 221.419 194.491 222.143 197.536 220.677C200.58 219.211 203.161 216.108 203.301 213.746C203.329 213.247 203.527 207.305 197.5 200.214Z" fill="#3F3D56"/>
<path d="M262.798 249.987C263.707 249.987 264.607 249.808 265.447 249.461C266.286 249.113 267.049 248.603 267.692 247.961C268.334 247.318 268.844 246.555 269.192 245.715C269.54 244.876 269.719 243.976 269.719 243.067V213.079C269.716 211.245 268.986 209.487 267.689 208.191C266.391 206.895 264.632 206.167 262.798 206.167C260.964 206.167 259.205 206.895 257.908 208.191C256.61 209.487 255.88 211.245 255.878 213.079V243.067C255.878 243.976 256.057 244.876 256.405 245.715C256.752 246.555 257.262 247.318 257.905 247.961C258.547 248.603 259.31 249.113 260.15 249.461C260.99 249.808 261.889 249.987 262.798 249.987V249.987Z" fill="#3F3D56"/>
<path d="M256.731 178.794C257.111 179.62 257.649 180.363 258.316 180.98C258.983 181.598 259.765 182.078 260.617 182.393C261.47 182.708 262.376 182.852 263.284 182.817C264.192 182.782 265.084 182.569 265.91 182.189L293.153 169.655C293.98 169.275 294.723 168.737 295.342 168.07C295.96 167.403 296.441 166.621 296.757 165.768C297.073 164.915 297.217 164.009 297.182 163.1C297.148 162.191 296.934 161.298 296.554 160.472C296.174 159.646 295.635 158.903 294.967 158.285C294.3 157.668 293.517 157.188 292.664 156.873C291.811 156.558 290.904 156.414 289.995 156.45C289.087 156.485 288.194 156.7 287.368 157.081L260.125 169.615C259.299 169.995 258.557 170.534 257.939 171.201C257.322 171.867 256.842 172.649 256.527 173.502C256.212 174.354 256.067 175.26 256.102 176.168C256.137 177.076 256.351 177.969 256.731 178.794V178.794Z" fill="#3F3D56"/>
<path d="M213.503 178.794C213.124 179.62 212.585 180.363 211.918 180.98C211.251 181.598 210.469 182.078 209.617 182.393C208.764 182.708 207.858 182.852 206.95 182.817C206.042 182.782 205.15 182.569 204.324 182.189L177.081 169.655C176.255 169.275 175.511 168.737 174.892 168.07C174.274 167.403 173.793 166.621 173.477 165.768C173.162 164.915 173.017 164.009 173.052 163.1C173.086 162.191 173.3 161.298 173.68 160.472C174.06 159.646 174.599 158.903 175.267 158.285C175.934 157.668 176.717 157.188 177.57 156.873C178.423 156.558 179.33 156.414 180.239 156.45C181.148 156.485 182.04 156.7 182.866 157.081L210.109 169.615C210.935 169.995 211.677 170.534 212.295 171.201C212.912 171.867 213.392 172.649 213.707 173.502C214.023 174.354 214.167 175.26 214.132 176.168C214.097 177.076 213.883 177.969 213.503 178.794Z" fill="#3F3D56"/>
<path d="M207.436 249.987C206.527 249.987 205.627 249.808 204.787 249.461C203.948 249.113 203.185 248.603 202.542 247.961C201.9 247.318 201.39 246.555 201.042 245.715C200.694 244.876 200.515 243.976 200.515 243.067V213.079C200.518 211.245 201.248 209.487 202.545 208.191C203.843 206.895 205.602 206.167 207.436 206.167C209.27 206.167 211.029 206.895 212.326 208.191C213.624 209.487 214.354 211.245 214.356 213.079V243.067C214.356 243.976 214.177 244.876 213.829 245.715C213.482 246.555 212.972 247.318 212.329 247.961C211.687 248.603 210.924 249.113 210.084 249.461C209.244 249.808 208.344 249.987 207.436 249.987V249.987Z" fill="#3F3D56"/>
<path d="M290.484 53.9106C290.883 52.7981 290.987 51.6013 290.786 50.4368L287.02 28.2798L283.253 6.12282C283.05 4.9265 282.535 3.80478 281.761 2.87041C280.987 1.93604 279.98 1.22196 278.842 0.799915C277.705 0.377867 276.476 0.262724 275.279 0.466083C274.083 0.669441 272.961 1.18413 272.027 1.95841L254.722 16.2987L244.679 24.6208C237.692 23.5946 230.585 23.7018 223.632 24.9382L213.206 16.2987L195.9 1.95838C194.966 1.1841 193.844 0.669412 192.648 0.466052C191.452 0.262692 190.223 0.377821 189.085 0.799869C187.947 1.22192 186.941 1.93601 186.167 2.87038C185.392 3.80475 184.878 4.92647 184.674 6.12279L180.908 28.2798L177.141 50.4368C176.975 51.3842 177.012 52.356 177.248 53.2882C177.485 54.2205 177.917 55.0919 178.515 55.8452C172.398 65.9597 169.104 77.5287 168.975 89.3482C168.846 101.168 171.887 112.806 177.782 123.052C183.676 133.297 192.209 141.776 202.492 147.605C212.775 153.434 224.432 156.401 236.25 156.197C248.069 155.993 259.617 152.625 269.692 146.444C279.767 140.263 288.002 131.495 293.539 121.051C299.076 110.608 301.714 98.8721 301.176 87.064C300.639 75.256 296.947 63.8077 290.484 53.9106H290.484Z" fill="#3F3D56"/>
<path d="M271.589 11.8299L250.604 29.2197L250.603 29.2205C250.141 29.6038 249.787 30.1021 249.578 30.6653C249.369 31.2285 249.312 31.8368 249.413 32.429C249.514 33.0212 249.769 33.5765 250.152 34.039C250.535 34.5016 251.033 34.855 251.597 35.064L277.15 44.5434C277.713 44.7524 278.322 44.8094 278.914 44.7087C279.506 44.6081 280.062 44.3533 280.524 43.97C280.987 43.5866 281.34 43.0883 281.549 42.525C281.758 41.9617 281.815 41.3534 281.715 40.7611L277.147 13.8915C277.05 13.2979 276.796 12.7409 276.412 12.2777C276.028 11.8146 275.528 11.462 274.963 11.2562C274.578 11.1125 274.171 11.0387 273.761 11.0381C272.967 11.0396 272.198 11.3198 271.589 11.8299V11.8299Z" fill="#E6E6E6"/>
<path d="M192.964 11.2562C192.399 11.462 191.899 11.8146 191.515 12.2777C191.131 12.7409 190.877 13.2979 190.78 13.8915L186.213 40.7611C186.112 41.3534 186.169 41.9617 186.378 42.525C186.587 43.0883 186.941 43.5866 187.403 43.97C187.866 44.3533 188.421 44.6081 189.013 44.7087C189.606 44.8094 190.214 44.7524 190.777 44.5434L216.331 35.064C216.894 34.855 217.392 34.5015 217.775 34.039C218.159 33.5765 218.413 33.0212 218.514 32.429C218.615 31.8368 218.558 31.2285 218.349 30.6653C218.14 30.1021 217.787 29.6038 217.324 29.2205L196.338 11.8299C195.729 11.3198 194.961 11.0396 194.166 11.0381C193.756 11.0387 193.349 11.1125 192.964 11.2562Z" fill="#E6E6E6"/>
<path d="M235.117 108.505C240.213 108.505 244.344 104.374 244.344 99.2781C244.344 94.1821 240.213 90.051 235.117 90.051C230.021 90.051 225.89 94.1821 225.89 99.2781C225.89 104.374 230.021 108.505 235.117 108.505Z" fill="#E6E6E6"/>
<path d="M235.117 96.9715C238.514 96.9715 241.268 95.9387 241.268 94.6647C241.268 93.3907 238.514 92.3579 235.117 92.3579C231.72 92.3579 228.966 93.3907 228.966 94.6647C228.966 95.9387 231.72 96.9715 235.117 96.9715Z" fill="#3F3D56"/>
<path d="M235.501 119.27C234.946 119.27 234.396 119.161 233.883 118.948C233.37 118.736 232.904 118.424 232.511 118.032C232.118 117.639 231.807 117.173 231.594 116.66C231.382 116.146 231.272 115.597 231.272 115.041V104.661H239.73V115.041C239.73 115.597 239.621 116.146 239.409 116.66C239.196 117.173 238.885 117.639 238.492 118.032C238.099 118.424 237.633 118.736 237.12 118.948C236.607 119.161 236.057 119.27 235.501 119.27V119.27Z" fill="#FF6584"/>
<path d="M234.604 0C235.047 0.91976 235.478 1.84947 235.883 2.79819C240.655 13.9273 242.264 26.1572 240.533 38.142C239.668 36.8859 238.758 35.5773 237.832 34.2543C239.814 22.7519 238.7 10.9294 234.604 0V0Z" fill="#3F3D56"/>
<path d="M227.683 8.45813C228.127 9.3779 228.558 10.3076 228.963 11.2563C233.735 22.3855 235.344 34.6154 233.613 46.6002C232.748 45.3441 231.838 44.0355 230.912 42.7124C232.894 31.2101 231.78 19.3875 227.683 8.45813V8.45813Z" fill="#3F3D56"/>
<path d="M206.347 39.9473L207.322 27.5493L208.297 15.1512C208.35 14.4818 208.578 13.838 208.958 13.2846C209.338 12.7312 209.858 12.2876 210.464 11.9985C211.07 11.7094 211.741 11.5849 212.411 11.6375C213.08 11.6902 213.724 11.9181 214.277 12.2984L224.527 19.3417L232.011 24.485C232.49 23.9249 233.084 23.4752 233.753 23.1668C234.422 22.8584 235.149 22.6988 235.886 22.6988C236.623 22.6988 237.35 22.8584 238.019 23.1668C238.688 23.4752 239.282 23.9249 239.761 24.485L247.245 19.3417L257.495 12.2984C258.048 11.9181 258.692 11.6902 259.361 11.6375C260.031 11.5849 260.702 11.7094 261.308 11.9985C261.914 12.2876 262.434 12.7312 262.814 13.2846C263.194 13.838 263.422 14.4818 263.475 15.1512L264.45 27.5493L265.425 39.9473C265.477 40.6167 265.353 41.2882 265.064 41.8943C264.774 42.5003 264.331 43.0196 263.778 43.3999C263.224 43.7801 262.58 44.0081 261.911 44.0607C261.242 44.1133 260.57 43.9888 259.964 43.6997L248.739 38.345L239.517 33.9452C239.042 34.426 238.477 34.8078 237.854 35.0684C237.23 35.329 236.562 35.4632 235.886 35.4632C235.21 35.4632 234.542 35.329 233.918 35.0684C233.295 34.8078 232.73 34.426 232.255 33.9452L223.033 38.345L211.808 43.6998C211.202 43.9889 210.531 44.1134 209.861 44.0608C209.192 44.0081 208.548 43.7802 207.995 43.3999C207.441 43.0196 206.998 42.5003 206.708 41.8943C206.419 41.2882 206.295 40.6168 206.347 39.9473V39.9473Z" fill="#FF6584"/>
<path d="M245.113 89.2822C245.113 90.5562 246.146 89.2822 247.42 89.2822C248.694 89.2822 249.727 90.5562 249.727 89.2822C249.725 88.6712 249.482 88.0857 249.049 87.6541C248.617 87.2226 248.031 86.9802 247.42 86.9802C246.809 86.9802 246.223 87.2226 245.79 87.6541C245.358 88.0857 245.114 88.6712 245.113 89.2822V89.2822Z" fill="#E6E6E6"/>
<path d="M225.121 89.2822C225.121 90.5562 224.088 89.2822 222.814 89.2822C221.54 89.2822 220.507 90.5562 220.507 89.2822C220.509 88.6712 220.752 88.0857 221.185 87.6541C221.617 87.2226 222.203 86.9802 222.814 86.9802C223.425 86.9802 224.011 87.2226 224.444 87.6541C224.876 88.0857 225.12 88.6712 225.121 89.2822V89.2822Z" fill="#E6E6E6"/>
<path d="M481.05 263.451V248.788H407.736V249.705V263.451V381.67V396.333H422.399H481.05V381.67H422.399V263.451H481.05Z" fill="#3F3D56"/>
<path d="M516.791 248.788V396.333H590.105V248.788H516.791ZM575.442 381.67H531.453V263.451H575.442V381.67Z" fill="#FF6584"/>
<path d="M313.344 381.67V249.705H298.681V381.67V396.333H313.344H371.995V381.67H313.344Z" fill="#FF6584"/>
<path d="M265.69 263.451V248.788H192.376V249.705V263.451V314.771V329.434V381.67V396.333H207.039H265.69V381.67H207.039V329.434H265.69V314.771H207.039V263.451H265.69Z" fill="#3F3D56"/>
<path d="M839.372 263.451V248.788H766.058V249.705V263.451V314.771V329.434V381.67V396.333H780.721H839.372V381.67H780.721V329.434H839.372V314.771H780.721V263.451H839.372Z" fill="#FF6584"/>
<path d="M142.889 249.705V370.89L104.228 332.23L104.14 332.319L104.058 332.237L64.5351 371.76V249.247H49.8721V395.875H64.5351V392.496L104.147 352.884L142.889 391.627V396.333H157.552V249.705H142.889Z" fill="#3F3D56"/>
<path d="M717.488 249.705V253.083L677.876 292.695L639.133 253.953V249.247H624.47V395.875H639.133V274.689L677.794 313.35L677.883 313.261L677.964 313.342L717.488 273.819V396.333H732.15V249.705H717.488Z" fill="#3F3D56"/>
<path d="M335.076 159.38C340.046 159.38 344.076 155.35 344.076 150.38C344.076 145.409 340.046 141.38 335.076 141.38C330.105 141.38 326.076 145.409 326.076 150.38C326.076 155.35 330.105 159.38 335.076 159.38Z" fill="#FF6584"/>
<path d="M113.076 259.38C118.046 259.38 122.076 255.35 122.076 250.38C122.076 245.409 118.046 241.38 113.076 241.38C108.105 241.38 104.076 245.409 104.076 250.38C104.076 255.35 108.105 259.38 113.076 259.38Z" fill="#FF6584"/>
<path d="M291.076 459.38C296.046 459.38 300.076 455.35 300.076 450.38C300.076 445.409 296.046 441.38 291.076 441.38C286.105 441.38 282.076 445.409 282.076 450.38C282.076 455.35 286.105 459.38 291.076 459.38Z" fill="#FF6584"/>
<path d="M517.076 186.38C522.046 186.38 526.076 182.35 526.076 177.38C526.076 172.409 522.046 168.38 517.076 168.38C512.105 168.38 508.076 172.409 508.076 177.38C508.076 182.35 512.105 186.38 517.076 186.38Z" fill="#FF6584"/>
<path d="M782.076 451.38C787.046 451.38 791.076 447.35 791.076 442.38C791.076 437.409 787.046 433.38 782.076 433.38C777.105 433.38 773.076 437.409 773.076 442.38C773.076 447.35 777.105 451.38 782.076 451.38Z" fill="#FF6584"/>
<path d="M791.076 215.38C796.046 215.38 800.076 211.35 800.076 206.38C800.076 201.409 796.046 197.38 791.076 197.38C786.105 197.38 782.076 201.409 782.076 206.38C782.076 211.35 786.105 215.38 791.076 215.38Z" fill="#FF6584"/>
<path d="M677.076 377.38C682.046 377.38 686.076 373.35 686.076 368.38C686.076 363.409 682.046 359.38 677.076 359.38C672.105 359.38 668.076 363.409 668.076 368.38C668.076 373.35 672.105 377.38 677.076 377.38Z" fill="#FF6584"/>
</svg>
